<?xml version="1.0" encoding="UTF-8"?>
<svg width="20px" height="20px" viewBox="0 0 20 20" version="1.1" xmlns="http://www.w3.org/2000/svg" xmlns:xlink="http://www.w3.org/1999/xlink">
    <!-- Generator: Sketch 55.1 (78136) - https://sketchapp.com -->
    <title>note</title>
    <desc>Created with Sketch.</desc>
    <g id="V2-app" stroke="none" stroke-width="1" fill="none" fill-rule="evenodd">
        <g id="subasta" transform="translate(-243.000000, -103.000000)" fill="#FFFFFF" fill-rule="nonzero">
            <g id="note" transform="translate(243.000000, 103.000000)">
                <path d="M17.0694564,2.9305193 C13.1623973,-0.976546476 6.83816483,-0.977133046 2.93055828,2.9305193 C-0.976539916,6.83754597 -0.97716559,13.1618675 2.93055828,17.0694807 C6.83761737,20.9765465 13.1618498,20.977133 17.0694564,17.0694807 C20.9765546,13.162454 20.9771412,6.83813254 17.0694564,2.9305193 Z M13.6543333,7.44746164 C13.4514977,7.85313358 12.9583103,8.01752965 12.5525609,7.81473279 L11.2383331,7.15757866 L11.2383331,12.502719 C11.2383331,13.8755279 10.1214663,14.9923966 8.74865975,14.9923966 C7.37585325,14.9923966 6.25898643,13.8755279 6.25898643,12.502719 C6.25898643,11.1299101 7.37585325,10.0130414 8.74865975,10.0130414 L9.59593938,10.0130414 L9.59593938,5.82884078 C9.59593938,5.21849495 10.2395231,4.8218953 10.7844067,5.0943376 L13.2871019,6.34568732 C13.6926949,6.54852329 13.8571298,7.04178971 13.6543333,7.44746164 L13.6543333,7.44746164 Z" id="Shape"></path>
            </g>
        </g>
    </g>
</svg>