<?xml version="1.0" standalone="no"?>
<!DOCTYPE svg PUBLIC "-//W3C//DTD SVG 20010904//EN"
 "http://www.w3.org/TR/2001/REC-SVG-20010904/DTD/svg10.dtd">
<svg version="1.0" xmlns="http://www.w3.org/2000/svg"
 width="512.000000pt" height="312.000000pt" viewBox="0 0 512.000000 312.000000"
 preserveAspectRatio="xMidYMid meet">
<metadata>
Created by potrace 1.16, written by Peter Selinger 2001-2019
</metadata>
<g transform="translate(0.000000,312.000000) scale(0.100000,-0.100000)"
fill="#000000" stroke="none">
<path d="M0 1560 l0 -1560 2560 0 2560 0 0 1560 0 1560 -2560 0 -2560 0 0
-1560z m3182 519 c47 -10 128 -44 128 -53 0 -16 -81 -211 -87 -209 -4 1 -35
12 -68 23 -82 30 -182 25 -220 -10 -52 -49 -29 -88 95 -160 171 -100 232 -198
210 -335 -31 -193 -189 -305 -428 -305 -92 0 -184 20 -252 55 -28 14 -50 27
-50 28 0 6 72 182 81 199 9 16 11 16 42 -2 45 -27 141 -50 208 -50 76 0 123
30 127 83 4 45 -17 67 -128 132 -85 50 -163 125 -186 180 -8 19 -14 61 -14 94
0 156 104 280 273 326 64 17 197 19 269 4z m-1712 -7 c0 -5 7 -79 16 -166 8
-86 14 -166 12 -177 -2 -17 -41 9 -233 161 -126 100 -232 184 -234 186 -2 2
95 4 217 4 122 0 222 -4 222 -8z m667 -6 c-3 -7 -123 -240 -266 -517 l-260
-504 -140 -3 c-78 -1 -141 1 -141 5 -1 5 -27 191 -58 415 l-58 407 35 -22 c20
-12 81 -50 135 -84 55 -35 104 -63 111 -63 7 0 15 -49 23 -142 12 -130 16
-159 25 -147 2 2 20 42 40 87 20 46 90 196 154 333 l117 249 144 0 c118 0 143
-2 139 -14z m413 4 c0 -6 -43 -236 -95 -511 -52 -275 -95 -505 -95 -510 0 -5
-56 -9 -130 -9 -97 0 -130 3 -130 13 0 6 43 237 95 512 52 275 95 503 95 508
0 4 59 7 130 7 83 0 130 -4 130 -10z m1495 -12 c6 -32 115 -968 115 -995 0
-23 -2 -23 -134 -23 l-134 0 -6 98 c-4 53 -10 112 -13 130 l-5 33 -121 -3
-120 -3 -58 -125 -57 -125 -141 -3 -140 -3 145 298 c80 164 193 398 252 520
l107 222 152 1 c150 0 153 0 158 -22z"/>
<path d="M3773 1642 c-29 -64 -53 -121 -53 -125 0 -4 32 -7 71 -7 l71 0 -5 33
c-3 17 -9 74 -13 125 -4 50 -9 92 -13 92 -3 0 -30 -53 -58 -118z"/>
</g>
</svg>
