<?xml version="1.0" encoding="UTF-8"?>
<svg width="28px" height="28px" viewBox="0 0 28 28" version="1.1" xmlns="http://www.w3.org/2000/svg" xmlns:xlink="http://www.w3.org/1999/xlink">
    <!-- Generator: Sketch 55.1 (78136) - https://sketchapp.com -->
    <title>playlist (1)</title>
    <desc>Created with Sketch.</desc>
    <g id="V2-app" stroke="none" stroke-width="1" fill="none" fill-rule="evenodd">
        <g id="Artistas-canciones" transform="translate(-317.000000, -326.000000)" fill="#EE5435" fill-rule="nonzero">
            <g id="playlist-(1)" transform="translate(317.000000, 326.000000)">
                <path d="M23.8972389,4.10277858 C18.427411,-1.36715488 9.57343076,-1.36803082 4.10278159,4.10277858 C-1.36715588,9.57260255 -1.36803183,18.4265763 4.10278159,23.8972214 C9.57260957,29.3671549 18.4265898,29.3680308 23.8972389,23.8972214 C29.3671764,18.4274522 29.3679976,9.57347849 23.8972389,4.10277858 Z M9.32833088,8.17870404 L18.6716897,8.17870404 C19.3066391,8.17870404 19.8213652,8.69342985 19.8213652,9.32837878 C19.8213652,9.96332772 19.3066391,10.4780535 18.6716897,10.4780535 L9.32833088,10.4780535 C8.69338147,10.4780535 8.17865529,9.96332772 8.17865529,9.32837878 C8.17865529,8.69342985 8.69338147,8.17870404 9.32833088,8.17870404 Z M12.8321041,19.8214055 L9.32833088,19.8214055 C8.69338147,19.8214055 8.17865529,19.3066796 8.17865529,18.6717307 C8.17865529,18.0367818 8.69338147,17.522056 9.32833088,17.522056 L12.8321041,17.522056 C13.4670535,17.522056 13.9817797,18.0367818 13.9817797,18.6717307 C13.9817797,19.3066796 13.4669988,19.8214055 12.8321041,19.8214055 Z M9.32833088,15.1497295 C8.69338147,15.1497295 8.17865529,14.6350037 8.17865529,14.0000547 C8.17865529,13.3651058 8.69338147,12.85038 9.32833088,12.85038 L15.7518969,12.85038 C16.3868463,12.85038 16.9015725,13.3651058 16.9015725,14.0000547 C16.9015725,14.6350037 16.3868463,15.1497295 15.7518969,15.1497295 L9.32833088,15.1497295 Z M21.0075567,19.8214055 L19.8213652,19.8214055 L19.8213652,21.0075961 C19.8213652,21.642545 19.3066391,22.1572708 18.6716897,22.1572708 C18.0367402,22.1572708 17.5220141,21.642545 17.5220141,21.0075961 L17.5220141,19.8214055 L16.3358773,19.8214055 C15.7009279,19.8214055 15.1862017,19.3066796 15.1862017,18.6717307 C15.1862017,18.0367818 15.7009279,17.522056 16.3358773,17.522056 L17.5220141,17.522056 L17.5220141,16.3359201 C17.5220141,15.7009712 18.0367402,15.1862454 18.6716897,15.1862454 C19.3066391,15.1862454 19.8213652,15.7009712 19.8213652,16.3359201 L19.8213652,17.522056 L21.0075567,17.522056 C21.6425061,17.522056 22.1572323,18.0367818 22.1572323,18.6717307 C22.1572323,19.3066796 21.6424514,19.8214055 21.0075567,19.8214055 Z" id="Shape"></path>
            </g>
        </g>
    </g>
</svg>