<?xml version="1.0" encoding="UTF-8"?>
<svg width="28px" height="28px" viewBox="0 0 28 28" version="1.1" xmlns="http://www.w3.org/2000/svg" xmlns:xlink="http://www.w3.org/1999/xlink">
    <!-- Generator: Sketch 55.1 (78136) - https://sketchapp.com -->
    <title>playlist copy 14</title>
    <desc>Created with Sketch.</desc>
    <g id="V2-app" stroke="none" stroke-width="1" fill="none" fill-rule="evenodd">
        <g id="Año" transform="translate(-317.000000, -157.000000)" fill="#EE5435" fill-rule="nonzero">
            <g id="playlist-copy-14" transform="translate(317.000000, 157.000000)">
                <path d="M23.8972565,4.10277858 C18.4274245,-1.36715488 9.57343778,-1.36803082 4.1027846,4.10277858 C-1.36715689,9.57260255 -1.36803283,18.4265763 4.1027846,23.8972214 C9.57261659,29.3671549 18.4266033,29.3680308 23.8972565,23.8972214 C29.3671432,18.4274522 29.3680191,9.57347849 23.8972565,4.10277858 Z M13.9999658,25.6975026 C7.54995252,25.6975026 2.30244605,20.4500038 2.30244605,14 C2.30244605,7.54999619 7.54995252,2.30249742 13.9999658,2.30249742 C20.4499791,2.30249742 25.6974855,7.54999619 25.6974855,14 C25.6974855,20.4500038 20.4500338,25.6975026 13.9999658,25.6975026 Z" id="Shape"></path>
                <path d="M8.18495669,11 L17.8150433,11 C18.469478,11 19,10.5522857 19,10 C19,9.44771429 18.469478,9 17.8150433,9 L8.18495669,9 C7.53052204,9 7,9.44771429 7,10 C7,10.5522857 7.53057847,11 8.18495669,11 Z" id="Path"></path>
                <path d="M17,14 C17,13.4477143 16.4689236,13 15.813805,13 L9.18619495,13 C8.53107642,13 8,13.4477143 8,14 C8,14.5522857 8.53107642,15 9.18619495,15 L15.813805,15 C16.4689236,15 17,14.5522857 17,14 Z" id="Path"></path>
                <path d="M13.8113208,17 L10.1886792,17 C9.53218868,17 9,17.4477143 9,18 C9,18.5522857 9.53218868,19 10.1886792,19 L13.8113208,19 C14.4678113,19 15,18.5522857 15,18 C15,17.4477143 14.4678113,17 13.8113208,17 Z" id="Path"></path>
                <path d="M21.6806248,17.6805934 L20.3193438,17.6805934 L20.3193438,16.3193752 C20.3193438,15.5907031 19.7286407,15 18.9999686,15 C18.2712965,15 17.6805934,15.5907031 17.6805934,16.3193752 L17.6805934,17.6805934 L16.3193752,17.6805934 C15.5907031,17.6805934 15,18.2712965 15,18.9999686 C15,19.7286407 15.5907031,20.3193438 16.3193752,20.3193438 L17.6805934,20.3193438 L17.6805934,21.6806248 C17.6805934,22.4092969 18.2712965,23 18.9999686,23 C19.7286407,23 20.3193438,22.4092969 20.3193438,21.6806248 L20.3193438,20.3193438 L21.6806248,20.3193438 C22.4092969,20.3193438 23,19.7286407 23,18.9999686 C23,18.2712965 22.4092969,17.6805934 21.6806248,17.6805934 L21.6806248,17.6805934 Z" id="Path"></path>
            </g>
        </g>
    </g>
</svg>